<svg width="300" height="357" viewBox="0 0 300 357" fill="none" xmlns="http://www.w3.org/2000/svg">
<path d="M61.616 171.22C66.2561 173.627 70.7562 176.082 75.3735 178.291C81.9539 181.44 88.69 184.265 95.2302 187.492C101.681 190.675 108.064 194.024 114.308 197.596C121.282 201.585 128.196 205.709 134.898 210.138C142.215 214.975 149.311 220.155 156.398 225.331C159.498 227.595 162.333 230.222 165.294 232.677C165.551 232.89 165.852 233.049 166.373 233.392C166.463 232.709 166.584 232.212 166.584 231.715C166.594 212.331 166.578 192.948 166.62 173.564C166.623 171.915 165.748 171.896 164.552 171.897C145.454 171.912 126.355 171.907 107.256 171.907C103.851 171.907 100.445 171.856 97.0408 171.921C92.0525 172.016 88.2575 168.698 87.2838 163.545C86.3593 158.654 90.9307 153.104 95.9348 152.899C96.8217 152.863 97.7112 152.887 98.5995 152.887C123.867 152.886 149.135 152.923 174.402 152.857C179.792 152.843 184.323 156.464 184.404 162.099C184.415 162.889 184.497 163.679 184.497 164.469C184.502 194.78 184.519 225.092 184.461 255.404C184.458 257.335 184.18 259.384 183.491 261.169C182.194 264.528 179.52 266.445 175.888 266.617C172.471 266.78 169.861 265.25 167.931 262.379C164.824 257.76 160.886 253.872 156.796 250.144C154.171 247.752 151.548 245.345 148.775 243.132C144.189 239.474 139.635 235.743 134.792 232.449C127.208 227.292 119.51 222.281 111.645 217.569C104.879 213.515 97.8591 209.876 90.8637 206.223C85.4445 203.393 79.9189 200.761 74.3834 198.164C71.2175 196.678 67.9279 195.46 64.7103 194.082C58.0972 191.252 52.0205 187.503 46.3006 183.162C41.2023 179.293 36.7362 174.782 32.93 169.631C28.2604 163.312 24.9857 156.357 23.4735 148.605C21.7901 139.974 22.1236 131.421 24.3319 122.919C26.8607 113.184 30.6327 103.949 36.2536 95.6272C39.135 91.3615 42.522 87.3111 46.2712 83.796C50.3528 79.9693 57.3291 81.2224 59.9447 87.1163C61.7061 91.0854 60.7914 95.1844 57.713 98.2835C52.5398 103.492 48.5481 109.444 45.739 116.285C43.4011 121.979 41.206 127.678 40.584 133.831C39.9687 139.919 40.6132 145.883 43.2204 151.501C47.1835 160.041 53.6993 166.22 61.616 171.22Z" fill="#214E82"/>
<path d="M225.807 85.9442C219.454 77.9261 211.533 72.0555 202.5 67.6768C193.881 63.4987 184.793 60.7606 175.319 59.2985C163.581 57.4869 151.795 56.7894 139.957 57.9187C135.996 58.2966 132.08 59.1355 128.139 59.7348C124.265 60.3239 120.694 60.1355 118.092 56.4955C115.805 53.2966 115.488 49.3531 117.43 45.9091C118.873 43.352 121.048 41.93 123.85 41.3738C134.571 39.2458 145.376 37.9259 156.324 38.4744C161.143 38.7158 165.959 39.19 170.75 39.7781C175.681 40.3835 180.615 41.0818 185.481 42.0667C189.431 42.8661 193.341 43.9785 197.164 45.2664C201.123 46.6005 205.04 48.1304 208.825 49.8971C217.414 53.9057 225.203 59.1108 232.112 65.685C236.221 69.5949 239.953 73.8231 242.876 78.6041C245.982 83.6833 248.6 89.0924 251.075 94.5201C254.423 101.858 256.156 109.688 256.812 117.707C257.423 125.166 256.668 132.537 254.088 139.603C252.617 143.632 250.782 147.493 247.951 150.84C244.42 155.015 237.964 154.645 234.627 150.14C232.193 146.854 232.096 142.339 234.265 138.864C236.801 134.801 238.398 130.464 238.836 125.573C239.733 115.553 236.985 106.413 232.657 97.6452C230.676 93.6334 228.152 89.8911 225.807 85.9442Z" fill="#214E82"/>
<path d="M78.8644 55.2997C84.0234 52.4647 89.2382 50.0601 94.859 48.5883C99.9526 47.2546 104.723 49.7914 106.18 54.7359C107.689 59.8541 105.058 64.951 100.179 66.6815C96.525 67.9773 92.8527 69.2896 89.3612 70.957C85.4445 72.8275 81.9018 75.3557 78.7178 78.3563C76.3502 80.5874 73.7665 82.117 70.2417 81.5751C64.7124 80.725 61.1467 74.3446 63.1976 69.0046C64.3176 66.0885 66.5255 64.134 68.8962 62.3619C72.1283 59.9458 75.4744 57.6829 78.8644 55.2997Z" fill="#214E82"/>
<path d="M189.546 113.382C185.444 107.314 179.667 103.697 173.052 101.272C166.647 98.9241 160.025 97.8482 153.193 98.0326C147.474 98.187 141.728 97.9543 136.042 98.4468C131.516 98.8387 127.046 99.9925 122.581 100.944C117.831 101.956 113.343 103.757 109.088 106.077C104.961 108.327 101.031 110.938 97.8861 114.465C95.0937 117.597 92.6519 121.03 91.3892 125.136C89.9876 129.694 86.8498 131.258 83.7201 131.17C77.617 130.998 75.1716 125.718 76.0872 121.4C77.0865 116.686 79.3553 112.496 82.1087 108.617C85.2578 104.18 88.9664 100.262 93.2969 96.8922C98.1395 93.1241 103.477 90.3244 109.086 87.9826C115.39 85.3507 121.973 83.6258 128.713 82.6816C133.47 82.0153 138.291 81.6508 143.094 81.5117C148.711 81.3491 154.345 81.4422 159.962 81.674C165.835 81.9163 171.544 83.1642 177.092 85.1636C183.833 87.5935 190.088 90.901 195.422 95.7138C201.087 100.825 205.302 106.96 207.523 114.355C208.634 118.055 209.525 121.783 209.323 125.7C209.151 129.045 207.904 131.72 204.8 133.261C204.209 133.555 203.488 133.717 202.827 133.718C185.009 133.741 167.191 133.738 149.374 133.73C146.864 133.729 144.212 131.444 143.239 128.5C141.89 124.418 143.7 119.947 147.578 118.142C148.469 117.728 149.595 117.705 150.613 117.703C163.446 117.674 176.279 117.682 189.111 117.68C189.555 117.68 190.003 117.707 190.443 117.661C191.173 117.584 191.569 117.204 191.206 116.458C190.711 115.442 190.149 114.46 189.546 113.382ZM206.143 131.344C207.598 129.652 208.632 127.718 208.48 125.463C208.305 122.877 208.02 120.269 207.449 117.747C206.048 111.559 203.346 106.023 199.262 101.076C195.394 96.3892 190.773 92.7511 185.487 89.9363C181.375 87.746 177.049 86.0628 172.547 84.7341C168.318 83.486 164.002 82.7016 159.693 82.5519C152.067 82.2869 144.407 82.4124 136.785 82.8193C132.066 83.0713 127.376 84.0583 122.702 84.8829C120.154 85.3324 117.575 85.8901 115.175 86.8248C110.562 88.6211 106.048 90.6804 101.527 92.705C96.7454 94.846 92.737 98.1591 89.053 101.767C85.5128 105.234 82.3982 109.143 80.1394 113.617C78.504 116.855 76.7009 120.066 76.9357 123.912C77.151 127.44 80.9844 130.827 84.1464 130.257C87.3346 129.683 89.4887 127.914 90.5603 124.828C92.5547 119.084 96.0491 114.428 100.716 110.573C106.534 105.767 113.187 102.567 120.337 100.432C123.787 99.4016 127.378 98.755 130.949 98.2496C135.022 97.6732 139.138 97.2292 143.245 97.1246C148.461 96.9918 153.691 97.1662 158.907 97.3899C161.638 97.507 164.42 97.7429 167.061 98.4C172.217 99.6828 177.19 101.532 181.708 104.442C185.842 107.105 189.058 110.661 191.593 114.815C193.119 117.315 192.241 118.662 189.341 118.662C176.214 118.663 163.086 118.65 149.958 118.691C149.128 118.694 148.233 118.987 147.481 119.369C144.208 121.031 143.494 123.988 143.927 127.274C144.254 129.756 146.628 132.793 150.012 132.766C167.235 132.628 184.46 132.685 201.684 132.728C203.287 132.732 204.699 132.432 206.143 131.344Z" fill="#9F292D"/>
<path d="M229.246 219.016C225.165 223.014 220.543 225.942 215.232 227.759C215.139 227.791 215.043 227.815 214.949 227.844C211.95 228.761 211.95 228.761 211.949 231.96C211.948 246.247 212.001 260.535 211.908 274.822C211.886 278.289 210.337 280.958 207 282.604C203.127 284.515 198.246 282.037 196.807 278.235C196.448 277.285 196.23 276.218 196.23 275.205C196.2 237.04 196.201 198.875 196.207 160.71C196.208 157.117 198.913 153.905 202.503 153.147C206.065 152.394 209.514 154.09 210.947 157.53C211.52 158.906 211.901 160.474 211.908 161.956C211.975 177.38 211.947 192.805 211.946 208.229C211.946 208.773 211.953 209.316 211.955 209.86C211.958 210.777 212.467 211.06 213.194 210.642C214.298 210.007 215.369 209.295 216.379 208.518C220.967 204.984 223.668 200.161 225.494 194.793C226.976 190.437 227.708 185.939 228.259 181.357C228.811 176.764 231.997 174.006 236.905 174.308C240.807 174.548 244.184 178.422 243.876 182.681C243.611 186.338 243.117 190.036 242.187 193.573C241.04 197.932 239.548 202.233 237.817 206.396C235.854 211.114 232.912 215.276 229.246 219.016ZM211.172 193.62C211.172 183.285 211.219 172.949 211.125 162.615C211.11 160.986 210.633 159.299 210.06 157.755C209.31 155.734 207.605 154.416 205.571 154.03C200.92 153.148 197.192 156.442 197.192 161.185C197.193 198.965 197.193 236.746 197.194 274.526C197.194 274.971 197.175 275.417 197.198 275.861C197.438 280.582 202.99 283.809 207.038 281.523C210.011 279.844 211.104 277.216 211.125 274.187C211.229 259.402 211.2 244.616 211.135 229.83C211.128 228.166 211.95 227.529 213.26 227.106C214.608 226.671 215.974 226.295 217.318 225.849C221.773 224.373 225.414 221.515 228.692 218.361C232.238 214.949 234.732 210.646 236.965 206.241C239.184 201.862 240.587 197.181 241.621 192.428C242.358 189.04 242.65 185.531 242.836 182.059C242.904 180.784 242.351 179.295 241.635 178.195C240.141 175.898 236.876 174.765 234.501 175.386C231.48 176.177 229.586 178.341 229.152 181.482C228.878 183.466 228.597 185.451 228.302 187.433C227.478 192.959 225.63 198.126 222.674 202.859C220.453 206.415 217.59 209.369 213.859 211.368C212.02 212.354 211.18 211.834 211.176 209.791C211.167 204.499 211.173 199.208 211.172 193.62Z" fill="#9F292D"/>
<path d="M206.063 131.421C204.699 132.432 203.287 132.732 201.684 132.728C184.46 132.685 167.235 132.628 150.012 132.766C146.628 132.793 144.254 129.756 143.927 127.274C143.494 123.988 144.209 121.031 147.481 119.369C148.233 118.987 149.128 118.694 149.958 118.691C163.086 118.65 176.214 118.663 189.342 118.662C192.241 118.662 193.119 117.315 191.594 114.815C189.058 110.661 185.842 107.105 181.708 104.442C177.19 101.532 172.217 99.6828 167.061 98.4C164.42 97.7429 161.638 97.507 158.907 97.3899C153.691 97.1662 148.461 96.9919 143.245 97.1246C139.138 97.2292 135.022 97.6732 130.95 98.2496C127.378 98.755 123.787 99.4016 120.337 100.432C113.187 102.567 106.534 105.767 100.716 110.573C96.0491 114.428 92.5548 119.084 90.5603 124.828C89.4888 127.914 87.3346 129.683 84.1465 130.257C80.9845 130.827 77.1511 127.44 76.9358 123.912C76.701 120.066 78.504 116.855 80.1395 113.617C82.3982 109.143 85.5129 105.234 89.0531 101.767C92.7371 98.1591 96.7455 94.846 101.527 92.705C106.049 90.6804 110.562 88.6211 115.175 86.8248C117.575 85.8902 120.154 85.3324 122.702 84.8829C127.376 84.0583 132.066 83.0713 136.786 82.8193C144.407 82.4124 152.067 82.2869 159.693 82.5519C164.003 82.7016 168.318 83.486 172.547 84.7341C177.049 86.0628 181.375 87.746 185.487 89.9363C190.773 92.7511 195.394 96.3892 199.262 101.076C203.347 106.023 206.048 111.559 207.449 117.747C208.02 120.269 208.305 122.877 208.48 125.463C208.632 127.718 207.598 129.652 206.063 131.421Z" fill="#9F292D"/>
<path d="M211.172 193.769C211.173 199.208 211.167 204.499 211.176 209.791C211.18 211.834 212.02 212.354 213.859 211.368C217.59 209.369 220.453 206.415 222.674 202.859C225.63 198.126 227.478 192.959 228.302 187.433C228.597 185.451 228.878 183.466 229.152 181.482C229.586 178.341 231.48 176.177 234.501 175.386C236.876 174.765 240.141 175.898 241.635 178.196C242.351 179.295 242.904 180.784 242.836 182.059C242.65 185.531 242.358 189.04 241.621 192.428C240.587 197.181 239.184 201.862 236.965 206.241C234.732 210.646 232.238 214.949 228.692 218.361C225.414 221.515 221.773 224.373 217.318 225.849C215.974 226.295 214.608 226.671 213.26 227.106C211.95 227.529 211.128 228.166 211.135 229.83C211.2 244.616 211.229 259.402 211.125 274.187C211.104 277.217 210.011 279.844 207.038 281.523C202.99 283.809 197.438 280.582 197.198 275.861C197.175 275.417 197.194 274.971 197.194 274.526C197.193 236.746 197.193 198.965 197.192 161.185C197.192 156.442 200.92 153.148 205.571 154.03C207.605 154.416 209.31 155.734 210.06 157.755C210.633 159.299 211.11 160.986 211.125 162.615C211.219 172.949 211.172 183.285 211.172 193.769Z" fill="#9F292D"/>
<path d="M49.5781 346V312.062H57.5469V325.75H71.1875V312.062H79.1562V346H71.1875V332.266H57.5469V346H49.5781ZM100.672 335.031V320.547H108.547V346H101.047V341.312H100.766C99.6406 344.359 96.8281 346.328 92.9844 346.328C87.7812 346.328 84.2656 342.578 84.2656 336.766V320.547H92.1875V335.266C92.1875 338.031 93.7344 339.766 96.2656 339.766C98.7031 339.766 100.672 338.078 100.672 335.031ZM113.656 346V320.547H121.156V325.188H121.438C122.516 322.094 125.141 320.219 128.656 320.219C132.172 320.219 134.891 322.141 135.547 325.188H135.828C136.812 322.188 139.766 320.219 143.516 320.219C148.297 320.219 151.625 323.453 151.625 328.844V346H143.703V330.625C143.703 328.047 142.203 326.641 140.094 326.641C137.797 326.641 136.438 328.281 136.438 330.719V346H128.844V330.531C128.844 328.141 127.391 326.641 125.281 326.641C123.078 326.641 121.578 328.328 121.578 330.906V346H113.656ZM155.422 338.922C155.422 333.297 159.781 331.281 164.844 330.953C166.672 330.836 169.859 330.719 170.938 330.672V328.609C170.938 326.828 169.625 325.844 167.469 325.844C165.359 325.844 164.047 326.734 163.719 328.422H156.359C156.688 323.922 160.531 320.219 167.656 320.219C173.938 320.219 178.859 323.219 178.859 328.703V346H171.406V342.438H171.219C169.812 345.016 167.375 346.469 163.812 346.469C158.938 346.469 155.422 343.984 155.422 338.922ZM162.922 338.594C162.922 340.328 164.281 341.219 166.203 341.219C168.875 341.219 171.031 339.484 170.984 336.953V335.312C170.023 335.359 167.328 335.477 166.156 335.594C164.188 335.828 162.922 336.906 162.922 338.594ZM191.609 331.422V346H183.688V320.547H191.188V325.188H191.469C192.641 322.094 195.453 320.219 199.203 320.219C204.547 320.219 208.062 324.016 208.016 329.781V346H200.141V331.281C200.141 328.422 198.594 326.688 195.969 326.688C193.344 326.688 191.609 328.469 191.609 331.422ZM221 312.062V346H213.031V312.062H221ZM234.031 331.422V346H226.109V320.547H233.609V325.188H233.891C235.062 322.094 237.875 320.219 241.625 320.219C246.969 320.219 250.484 324.016 250.438 329.781V346H242.562V331.281C242.562 328.422 241.016 326.688 238.391 326.688C235.766 326.688 234.031 328.469 234.031 331.422Z" fill="black"/>
</svg>
